<svg width="143" height="27" viewBox="0 0 143 27" fill="none" xmlns="http://www.w3.org/2000/svg">
<path d="M0.789062 26V1.5791H4.62402C6.84863 1.5791 8.47559 1.72298 9.50488 2.01074C10.9658 2.39811 12.1279 3.11751 12.9912 4.16895C13.8545 5.22038 14.2861 6.45996 14.2861 7.8877C14.2861 8.81738 14.0869 9.66406 13.6885 10.4277C13.3011 11.1803 12.6647 11.8887 11.7793 12.5527C13.2624 13.25 14.347 14.1243 15.0332 15.1758C15.7194 16.2161 16.0625 17.4502 16.0625 18.8779C16.0625 20.2503 15.7083 21.501 15 22.6299C14.2917 23.7588 13.3786 24.6055 12.2607 25.1699C11.1429 25.7233 9.59896 26 7.62891 26H0.789062ZM5.4375 6.01172V11.1582H6.4502C7.5791 11.1582 8.41471 10.9202 8.95703 10.4443C9.51042 9.96842 9.78711 9.32096 9.78711 8.50195C9.78711 7.73828 9.52702 7.13509 9.00684 6.69238C8.48665 6.23861 7.69531 6.01172 6.63281 6.01172H5.4375ZM5.4375 15.3086V21.5674H6.59961C8.52539 21.5674 9.82031 21.3239 10.4844 20.8369C11.1595 20.3499 11.4971 19.6416 11.4971 18.7119C11.4971 17.6605 11.1042 16.8304 10.3184 16.2217C9.53255 15.613 8.22656 15.3086 6.40039 15.3086H5.4375ZM34.8613 7.9375H39.377V26H34.8613V24.0908C33.9759 24.932 33.085 25.5407 32.1885 25.917C31.3031 26.2822 30.3402 26.4648 29.2998 26.4648C26.9645 26.4648 24.9447 25.5628 23.2402 23.7588C21.5358 21.9437 20.6836 19.6914 20.6836 17.002C20.6836 14.2129 21.5081 11.9274 23.1572 10.1455C24.8063 8.36361 26.8096 7.47266 29.167 7.47266C30.2516 7.47266 31.2699 7.67741 32.2217 8.08691C33.1735 8.49642 34.0534 9.11068 34.8613 9.92969V7.9375ZM30.0967 11.6562C28.6911 11.6562 27.5234 12.1543 26.5938 13.1504C25.6641 14.1354 25.1992 15.4027 25.1992 16.9521C25.1992 18.5127 25.6696 19.7965 26.6104 20.8037C27.5622 21.8109 28.7298 22.3145 30.1133 22.3145C31.541 22.3145 32.7253 21.8219 33.666 20.8369C34.6068 19.8408 35.0771 18.5404 35.0771 16.9355C35.0771 15.3639 34.6068 14.0911 33.666 13.1172C32.7253 12.1432 31.5355 11.6562 30.0967 11.6562ZM45.4922 0.964844H50.0244V15.3916L56.6982 7.9375H62.376L54.6064 16.6035L63.3223 26H57.6943L50.0244 17.6826V26H45.4922V0.964844ZM66.6982 0.964844H71.1973V9.76367C72.0827 9 72.9736 8.43001 73.8701 8.05371C74.7666 7.66634 75.6742 7.47266 76.5928 7.47266C78.3857 7.47266 79.8965 8.09245 81.125 9.33203C82.1764 10.4056 82.7021 11.9827 82.7021 14.0635V26H78.2363V18.0811C78.2363 15.9893 78.1367 14.5726 77.9375 13.8311C77.7383 13.0895 77.3952 12.5361 76.9082 12.1709C76.4323 11.8057 75.8402 11.623 75.1318 11.623C74.2132 11.623 73.4219 11.9274 72.7578 12.5361C72.1048 13.1449 71.651 13.9749 71.3965 15.0264C71.2637 15.5687 71.1973 16.8083 71.1973 18.7451V26H66.6982V0.964844ZM89.1494 1.28027H93.665V7.9375H96.3545V11.8389H93.665V26H89.1494V11.8389H86.8252V7.9375H89.1494V1.28027ZM102.071 0.5C102.868 0.5 103.549 0.78776 104.113 1.36328C104.689 1.9388 104.977 2.63607 104.977 3.45508C104.977 4.26302 104.694 4.95475 104.13 5.53027C103.565 6.09473 102.89 6.37695 102.104 6.37695C101.297 6.37695 100.605 6.08919 100.029 5.51367C99.4648 4.92708 99.1826 4.21875 99.1826 3.38867C99.1826 2.5918 99.4648 1.91113 100.029 1.34668C100.594 0.782227 101.274 0.5 102.071 0.5ZM99.7969 7.9375H104.346V26H99.7969V7.9375ZM123.311 7.9375H127.826V26H123.311V24.0908C122.425 24.932 121.534 25.5407 120.638 25.917C119.752 26.2822 118.789 26.4648 117.749 26.4648C115.414 26.4648 113.394 25.5628 111.689 23.7588C109.985 21.9437 109.133 19.6914 109.133 17.002C109.133 14.2129 109.957 11.9274 111.606 10.1455C113.256 8.36361 115.259 7.47266 117.616 7.47266C118.701 7.47266 119.719 7.67741 120.671 8.08691C121.623 8.49642 122.503 9.11068 123.311 9.92969V7.9375ZM118.546 11.6562C117.14 11.6562 115.973 12.1543 115.043 13.1504C114.113 14.1354 113.648 15.4027 113.648 16.9521C113.648 18.5127 114.119 19.7965 115.06 20.8037C116.011 21.8109 117.179 22.3145 118.562 22.3145C119.99 22.3145 121.174 21.8219 122.115 20.8369C123.056 19.8408 123.526 18.5404 123.526 16.9355C123.526 15.3639 123.056 14.0911 122.115 13.1172C121.174 12.1432 119.985 11.6562 118.546 11.6562ZM132.846 7.9375H136.73V10.2119C137.151 9.31543 137.71 8.63477 138.407 8.16992C139.104 7.70508 139.868 7.47266 140.698 7.47266C141.285 7.47266 141.899 7.6276 142.541 7.9375L141.13 11.8389C140.599 11.5732 140.161 11.4404 139.818 11.4404C139.121 11.4404 138.529 11.8721 138.042 12.7354C137.566 13.5986 137.328 15.292 137.328 17.8154L137.345 18.6953V26H132.846V7.9375Z" fill="white"/>
</svg>
