<?xml version="1.0" standalone="no"?>
<!DOCTYPE svg PUBLIC "-//W3C//DTD SVG 20010904//EN"
 "http://www.w3.org/TR/2001/REC-SVG-20010904/DTD/svg10.dtd">
<svg version="1.0" xmlns="http://www.w3.org/2000/svg"
 width="300.000000pt" height="300.000000pt" viewBox="0 0 300.000000 300.000000"
 preserveAspectRatio="xMidYMid meet">

<g transform="translate(0.000000,300.000000) scale(0.100000,-0.100000)"
fill="#000000" stroke="none">
<path d="M978 2484 c-5 -4 -8 -29 -8 -55 l0 -48 -57 -3 -58 -3 0 -920 0 -920
280 -3 c511 -6 574 14 811 244 115 112 153 177 180 304 29 136 0 296 -73 400
-37 52 -156 159 -178 160 -6 0 -16 5 -23 12 -9 9 0 24 39 65 155 164 153 421
-3 589 -33 35 -72 71 -87 79 -152 85 -213 96 -541 102 -151 3 -278 2 -282 -3z
m635 -43 c208 -55 338 -187 368 -372 12 -73 0 -166 -29 -231 -19 -43 -100
-153 -108 -146 -2 2 5 26 15 54 58 153 22 328 -91 450 -33 35 -72 71 -87 79
-142 79 -218 95 -478 102 l-213 6 0 45 0 45 273 -6 c233 -4 283 -8 350 -26z
m-641 -938 l3 -858 280 -3 c294 -3 430 7 523 37 l53 18 -23 -24 c-12 -13 -54
-40 -93 -58 -108 -54 -206 -65 -552 -65 l-293 0 0 905 0 905 50 0 50 0 2 -857z
m521 828 c158 -41 272 -127 329 -247 80 -169 50 -352 -79 -481 -30 -30 -53
-56 -51 -57 1 -2 25 -16 52 -31 138 -80 226 -208 248 -362 17 -115 1 -201 -54
-313 -42 -83 -45 -86 -108 -117 -102 -51 -204 -63 -547 -63 l-293 0 0 851 0
852 213 -6 c168 -4 228 -10 290 -26z m402 -726 c216 -144 284 -409 166 -650
-22 -44 -55 -95 -75 -114 l-35 -34 25 61 c69 172 49 379 -51 514 -33 45 -133
133 -165 145 -43 17 -42 25 7 75 27 27 54 46 61 43 8 -3 37 -21 67 -40z"/>
<path d="M1330 2085 l0 -55 -60 0 -60 0 0 -190 0 -190 68 0 c99 0 162 22 206
70 20 22 36 45 36 50 0 6 7 10 15 10 22 0 86 61 101 97 17 39 18 111 3 150
-28 75 -107 113 -236 113 l-73 0 0 -55z m205 16 c67 -31 89 -62 93 -134 4 -74
-17 -122 -65 -150 l-33 -19 0 45 c0 91 -43 148 -127 173 l-53 15 0 45 0 44 73
0 c48 0 85 -6 112 -19z m-205 -217 l0 -126 80 4 c91 3 101 -8 41 -49 -44 -30
-93 -43 -163 -43 l-58 0 0 170 0 170 50 0 50 0 0 -126z m85 107 c67 -31 88
-62 93 -135 5 -73 1 -76 -100 -76 l-58 0 0 115 c0 127 -1 126 65 96z"/>
<path d="M1330 1396 l0 -56 -60 0 -60 0 0 -230 0 -230 97 0 c178 0 274 30 321
100 13 19 35 41 50 49 43 22 63 43 83 86 38 82 17 186 -51 252 -54 52 -127 75
-262 81 l-118 5 0 -57z m245 19 c117 -30 185 -106 185 -207 0 -63 -19 -107
-61 -142 l-34 -29 -6 64 c-3 35 -13 78 -22 95 -39 74 -122 123 -234 139 l-53
7 0 44 0 44 83 0 c45 0 110 -7 142 -15z m-245 -260 l0 -165 103 0 c56 1 121 5
145 9 23 5 42 5 42 2 0 -4 -12 -19 -28 -34 -44 -42 -105 -59 -239 -64 l-123
-6 0 212 0 211 50 0 50 0 0 -165z m161 140 c97 -34 148 -105 149 -202 0 -69
-12 -75 -167 -81 l-123 -5 0 158 0 158 50 -7 c27 -4 68 -13 91 -21z"/>
</g>
</svg>
