<svg width="139" height="199" viewBox="0 0 139 199" fill="none" xmlns="http://www.w3.org/2000/svg">
<g clip-path="url(#clip0_227_4777)">
<path d="M8.67188 195H7.67188V196H8.67188V195ZM8.67188 13.998V12.998H7.67188V13.998H8.67188ZM73.2715 17.1973L73.0022 18.1604L73.0152 18.1639L73.2715 17.1973ZM104.279 79.582L103.393 79.1195L103.39 79.1244L104.279 79.582ZM90.1289 95.332L89.5289 94.532L88.1988 95.5296L89.7034 96.237L90.1289 95.332ZM114.246 114.773L113.409 115.32L113.411 115.324L114.246 114.773ZM93.6973 188.848L94.1409 189.744L94.148 189.74L93.6973 188.848ZM43.125 46.8516V45.8516H42.125V46.8516H43.125ZM43.125 84.9961H42.125V85.9961H43.125V84.9961ZM69.2109 79.7051L68.5589 78.9469L68.5513 78.9535L69.2109 79.7051ZM69.5801 51.8965L68.9227 52.6501L68.932 52.658L69.5801 51.8965ZM43.125 115.758V114.758H42.125V115.758H43.125ZM43.125 162.146H42.125V163.146H43.125V162.146ZM80.5312 156.732L79.9462 155.921L79.9399 155.926L80.5312 156.732ZM9.67188 195V13.998H7.67188V195H9.67188ZM8.67188 14.998H37.0957V12.998H8.67188V14.998ZM37.0957 14.998C53.569 14.998 65.5124 16.0664 73.0022 18.1603L73.5407 16.2342C65.7728 14.0625 53.5989 12.998 37.0957 12.998V14.998ZM73.0152 18.1639C83.6641 20.9874 92.0878 26.215 98.3385 33.8279L99.8842 32.5588C93.338 24.5858 84.5351 19.1493 73.5278 16.2307L73.0152 18.1639ZM98.3385 33.8279C104.582 41.4327 107.709 50.3929 107.709 60.7559H109.709C109.709 49.9548 106.437 40.54 99.8842 32.5588L98.3385 33.8279ZM107.709 60.7559C107.709 67.4985 106.266 73.6133 103.393 79.1195L105.166 80.0446C108.199 74.2305 109.709 67.7945 109.709 60.7559H107.709ZM103.39 79.1244C100.606 84.5332 96.0061 89.6741 89.5289 94.532L90.7289 96.132C97.3767 91.1462 102.21 85.7871 105.168 80.0397L103.39 79.1244ZM89.7034 96.237C100.578 101.35 108.451 107.723 113.409 115.32L115.084 114.227C109.87 106.238 101.664 99.6504 90.5544 94.4271L89.7034 96.237ZM113.411 115.324C118.374 122.849 120.875 131.797 120.875 142.213H122.875C122.875 131.464 120.29 122.12 115.081 114.223L113.411 115.324ZM120.875 142.213C120.875 152.203 118.3 161.287 113.153 169.49L114.847 170.553C120.2 162.022 122.875 152.567 122.875 142.213H120.875ZM113.153 169.49C107.993 177.713 101.359 183.859 93.2465 187.955L94.148 189.74C102.606 185.469 109.507 179.064 114.847 170.553L113.153 169.49ZM93.2536 187.951C85.1636 191.956 73.8948 194 59.3672 194V196C74.0427 196 85.6607 193.942 94.1409 189.744L93.2536 187.951ZM59.3672 194H8.67188V196H59.3672V194ZM42.125 46.8516V84.9961H44.125V46.8516H42.125ZM43.125 85.9961H50.6309V83.9961H43.125V85.9961ZM50.6309 85.9961C59.1101 85.9961 65.5898 84.2133 69.8705 80.4567L68.5513 78.9535C64.793 82.2516 58.886 83.9961 50.6309 83.9961V85.9961ZM69.863 80.4633C74.214 76.7214 76.3633 71.6304 76.3633 65.3086H74.3633C74.3633 71.1274 72.411 75.634 68.5589 78.9469L69.863 80.4633ZM76.3633 65.3086C76.3633 59.3941 74.3349 54.63 70.2282 51.1349L68.932 52.658C72.5362 55.7255 74.3633 59.9027 74.3633 65.3086H76.3633ZM70.2374 51.1429C66.1237 47.5543 59.9761 45.8516 51.9844 45.8516V47.8516C59.7426 47.8516 65.3255 49.5121 68.9227 52.6501L70.2374 51.1429ZM51.9844 45.8516H43.125V47.8516H51.9844V45.8516ZM42.125 115.758V162.146H44.125V115.758H42.125ZM43.125 163.146H51.7383V161.146H43.125V163.146ZM51.7383 163.146C58.9114 163.146 64.9458 162.693 69.8264 161.776C74.6937 160.861 78.49 159.469 81.1226 157.539L79.9399 155.926C77.6507 157.605 74.1871 158.921 69.4568 159.81C64.7397 160.697 58.8386 161.146 51.7383 161.146V163.146ZM81.1163 157.543C86.4141 153.722 89.0371 148.151 89.0371 140.982H87.0371C87.0371 147.595 84.6562 152.524 79.9462 155.921L81.1163 157.543ZM89.0371 140.982C89.0371 132.901 85.9978 126.448 79.9132 121.735L78.6884 123.316C84.2522 127.626 87.0371 133.478 87.0371 140.982H89.0371ZM79.9132 121.735C73.8183 117.013 63.8563 114.758 50.2617 114.758V116.758C63.7375 116.758 73.1348 119.014 78.6884 123.316L79.9132 121.735ZM50.2617 114.758H43.125V116.758H50.2617V114.758Z" fill="#115173"/>
<path d="M20.6719 184H19.6719V185H20.6719V184ZM20.6719 2.99805V1.99805H19.6719V2.99805H20.6719ZM85.2715 6.19727L85.0022 7.16042L85.0152 7.16386L85.2715 6.19727ZM116.279 68.582L115.393 68.1195L115.39 68.1244L116.279 68.582ZM102.129 84.332L101.529 83.532L100.199 84.5296L101.703 85.237L102.129 84.332ZM126.246 103.773L125.409 104.32L125.411 104.324L126.246 103.773ZM105.697 177.848L106.141 178.744L106.148 178.74L105.697 177.848ZM55.125 35.8516V34.8516H54.125V35.8516H55.125ZM55.125 73.9961H54.125V74.9961H55.125V73.9961ZM81.2109 68.7051L80.5589 67.9469L80.5513 67.9535L81.2109 68.7051ZM81.5801 40.8965L80.9227 41.6501L80.932 41.658L81.5801 40.8965ZM55.125 104.758V103.758H54.125V104.758H55.125ZM55.125 151.146H54.125V152.146H55.125V151.146ZM92.5312 145.732L91.9462 144.921L91.9399 144.926L92.5312 145.732ZM21.6719 184V2.99805H19.6719V184H21.6719ZM20.6719 3.99805H49.0957V1.99805H20.6719V3.99805ZM49.0957 3.99805C65.569 3.99805 77.5124 5.0664 85.0022 7.16034L85.5407 5.23419C77.7728 3.06251 65.5989 1.99805 49.0957 1.99805V3.99805ZM85.0152 7.16386C95.6641 9.98745 104.088 15.215 110.338 22.8279L111.884 21.5588C105.338 13.5858 96.5351 8.14927 85.5278 5.23067L85.0152 7.16386ZM110.338 22.8279C116.582 30.4327 119.709 39.3929 119.709 49.7559H121.709C121.709 38.9548 118.437 29.54 111.884 21.5588L110.338 22.8279ZM119.709 49.7559C119.709 56.4985 118.266 62.6133 115.393 68.1195L117.166 69.0446C120.199 63.2305 121.709 56.7945 121.709 49.7559H119.709ZM115.39 68.1244C112.606 73.5332 108.006 78.6741 101.529 83.532L102.729 85.132C109.377 80.1462 114.21 74.7871 117.168 69.0397L115.39 68.1244ZM101.703 85.237C112.578 90.3496 120.451 96.7231 125.409 104.32L127.084 103.227C121.87 95.2378 113.664 88.6504 102.554 83.4271L101.703 85.237ZM125.411 104.324C130.374 111.849 132.875 120.797 132.875 131.213H134.875C134.875 120.464 132.29 111.12 127.081 103.223L125.411 104.324ZM132.875 131.213C132.875 141.203 130.3 150.287 125.153 158.49L126.847 159.553C132.2 151.022 134.875 141.567 134.875 131.213H132.875ZM125.153 158.49C119.993 166.713 113.359 172.859 105.247 176.955L106.148 178.74C114.606 174.469 121.507 168.064 126.847 159.553L125.153 158.49ZM105.254 176.951C97.1636 180.956 85.8948 183 71.3672 183V185C86.0427 185 97.6607 182.942 106.141 178.744L105.254 176.951ZM71.3672 183H20.6719V185H71.3672V183ZM54.125 35.8516V73.9961H56.125V35.8516H54.125ZM55.125 74.9961H62.6309V72.9961H55.125V74.9961ZM62.6309 74.9961C71.1101 74.9961 77.5898 73.2133 81.8705 69.4567L80.5513 67.9535C76.793 71.2516 70.886 72.9961 62.6309 72.9961V74.9961ZM81.863 69.4633C86.214 65.7214 88.3633 60.6304 88.3633 54.3086H86.3633C86.3633 60.1274 84.411 64.634 80.5589 67.9469L81.863 69.4633ZM88.3633 54.3086C88.3633 48.3941 86.3349 43.63 82.2282 40.1349L80.932 41.658C84.5362 44.7255 86.3633 48.9027 86.3633 54.3086H88.3633ZM82.2374 40.1429C78.1237 36.5543 71.9761 34.8516 63.9844 34.8516V36.8516C71.7426 36.8516 77.3255 38.5121 80.9227 41.6501L82.2374 40.1429ZM63.9844 34.8516H55.125V36.8516H63.9844V34.8516ZM54.125 104.758V151.146H56.125V104.758H54.125ZM55.125 152.146H63.7383V150.146H55.125V152.146ZM63.7383 152.146C70.9114 152.146 76.9458 151.693 81.8264 150.776C86.6937 149.861 90.49 148.469 93.1226 146.539L91.9399 144.926C89.6507 146.605 86.1871 147.921 81.4568 148.81C76.7397 149.697 70.8386 150.146 63.7383 150.146V152.146ZM93.1163 146.543C98.4141 142.722 101.037 137.151 101.037 129.982H99.0371C99.0371 136.595 96.6562 141.524 91.9462 144.921L93.1163 146.543ZM101.037 129.982C101.037 121.901 97.9978 115.448 91.9132 110.735L90.6884 112.316C96.2522 116.626 99.0371 122.478 99.0371 129.982H101.037ZM91.9132 110.735C85.8183 106.013 75.8563 103.758 62.2617 103.758V105.758C75.7375 105.758 85.1348 108.014 90.6884 112.316L91.9132 110.735ZM62.2617 103.758H55.125V105.758H62.2617V103.758Z" fill="#115173"/>
</g>
<defs>
<clipPath id="clip0_227_4777">
<rect width="139" height="199" fill="white"/>
</clipPath>
</defs>
</svg>
