<svg width="170" height="237" viewBox="0 0 170 237" fill="none" xmlns="http://www.w3.org/2000/svg">
<g clip-path="url(#clip0_227_4771)">
<rect width="170" height="237" fill="white"/>
<path d="M20.6719 199V17.998H49.0957C65.584 17.998 77.6426 19.0645 85.2715 21.1973C96.0996 24.0684 104.713 29.4004 111.111 37.1934C117.51 44.9863 120.709 54.1738 120.709 64.7559C120.709 71.6465 119.232 77.9219 116.279 83.582C113.408 89.1602 108.691 94.4102 102.129 99.332C113.121 104.5 121.16 110.98 126.246 118.773C131.332 126.484 133.875 135.631 133.875 146.213C133.875 156.385 131.25 165.654 126 174.021C120.75 182.389 113.982 188.664 105.697 192.848C97.4121 196.949 85.9688 199 71.3672 199H20.6719ZM55.125 50.8516V88.9961H62.6309C70.998 88.9961 77.1914 87.2324 81.2109 83.7051C85.3125 80.1777 87.3633 75.3789 87.3633 69.3086C87.3633 63.6484 85.4355 59.1777 81.5801 55.8965C77.7246 52.5332 71.8594 50.8516 63.9844 50.8516H55.125ZM55.125 119.758V166.146H63.7383C78.0117 166.146 87.6094 164.342 92.5312 160.732C97.5352 157.123 100.037 151.873 100.037 144.982C100.037 137.189 97.125 131.037 91.3008 126.525C85.4766 122.014 75.7969 119.758 62.2617 119.758H55.125Z" fill="#FFD700"/>
<path d="M32.6719 188V6.99805H61.0957C77.584 6.99805 89.6426 8.06445 97.2715 10.1973C108.1 13.0684 116.713 18.4004 123.111 26.1934C129.51 33.9863 132.709 43.1738 132.709 53.7559C132.709 60.6465 131.232 66.9219 128.279 72.582C125.408 78.1602 120.691 83.4102 114.129 88.332C125.121 93.5 133.16 99.9805 138.246 107.773C143.332 115.484 145.875 124.631 145.875 135.213C145.875 145.385 143.25 154.654 138 163.021C132.75 171.389 125.982 177.664 117.697 181.848C109.412 185.949 97.9688 188 83.3672 188H32.6719ZM67.125 39.8516V77.9961H74.6309C82.998 77.9961 89.1914 76.2324 93.2109 72.7051C97.3125 69.1777 99.3633 64.3789 99.3633 58.3086C99.3633 52.6484 97.4355 48.1777 93.5801 44.8965C89.7246 41.5332 83.8594 39.8516 75.9844 39.8516H67.125ZM67.125 108.758V155.146H75.7383C90.0117 155.146 99.6094 153.342 104.531 149.732C109.535 146.123 112.037 140.873 112.037 133.982C112.037 126.189 109.125 120.037 103.301 115.525C97.4766 111.014 87.7969 108.758 74.2617 108.758H67.125Z" fill="#115173"/>
<path d="M19.7891 233V208.579H23.624C25.8486 208.579 27.4756 208.723 28.5049 209.011C29.9658 209.398 31.1279 210.118 31.9912 211.169C32.8545 212.22 33.2861 213.46 33.2861 214.888C33.2861 215.817 33.0869 216.664 32.6885 217.428C32.3011 218.18 31.6647 218.889 30.7793 219.553C32.2624 220.25 33.347 221.124 34.0332 222.176C34.7194 223.216 35.0625 224.45 35.0625 225.878C35.0625 227.25 34.7083 228.501 34 229.63C33.2917 230.759 32.3786 231.605 31.2607 232.17C30.1429 232.723 28.599 233 26.6289 233H19.7891ZM24.4375 213.012V218.158H25.4502C26.5791 218.158 27.4147 217.92 27.957 217.444C28.5104 216.968 28.7871 216.321 28.7871 215.502C28.7871 214.738 28.527 214.135 28.0068 213.692C27.4867 213.239 26.6953 213.012 25.6328 213.012H24.4375ZM24.4375 222.309V228.567H25.5996C27.5254 228.567 28.8203 228.324 29.4844 227.837C30.1595 227.35 30.4971 226.642 30.4971 225.712C30.4971 224.66 30.1042 223.83 29.3184 223.222C28.5326 222.613 27.2266 222.309 25.4004 222.309H24.4375ZM53.8613 214.938H58.377V233H53.8613V231.091C52.9759 231.932 52.085 232.541 51.1885 232.917C50.3031 233.282 49.3402 233.465 48.2998 233.465C45.9645 233.465 43.9447 232.563 42.2402 230.759C40.5358 228.944 39.6836 226.691 39.6836 224.002C39.6836 221.213 40.5081 218.927 42.1572 217.146C43.8063 215.364 45.8096 214.473 48.167 214.473C49.2516 214.473 50.2699 214.677 51.2217 215.087C52.1735 215.496 53.0534 216.111 53.8613 216.93V214.938ZM49.0967 218.656C47.6911 218.656 46.5234 219.154 45.5938 220.15C44.6641 221.135 44.1992 222.403 44.1992 223.952C44.1992 225.513 44.6696 226.797 45.6104 227.804C46.5622 228.811 47.7298 229.314 49.1133 229.314C50.541 229.314 51.7253 228.822 52.666 227.837C53.6068 226.841 54.0771 225.54 54.0771 223.936C54.0771 222.364 53.6068 221.091 52.666 220.117C51.7253 219.143 50.5355 218.656 49.0967 218.656ZM64.4922 207.965H69.0244V222.392L75.6982 214.938H81.376L73.6064 223.604L82.3223 233H76.6943L69.0244 224.683V233H64.4922V207.965ZM85.6982 207.965H90.1973V216.764C91.0827 216 91.9736 215.43 92.8701 215.054C93.7666 214.666 94.6742 214.473 95.5928 214.473C97.3857 214.473 98.8965 215.092 100.125 216.332C101.176 217.406 101.702 218.983 101.702 221.063V233H97.2363V225.081C97.2363 222.989 97.1367 221.573 96.9375 220.831C96.7383 220.09 96.3952 219.536 95.9082 219.171C95.4323 218.806 94.8402 218.623 94.1318 218.623C93.2132 218.623 92.4219 218.927 91.7578 219.536C91.1048 220.145 90.651 220.975 90.3965 222.026C90.2637 222.569 90.1973 223.808 90.1973 225.745V233H85.6982V207.965ZM108.149 208.28H112.665V214.938H115.354V218.839H112.665V233H108.149V218.839H105.825V214.938H108.149V208.28ZM121.071 207.5C121.868 207.5 122.549 207.788 123.113 208.363C123.689 208.939 123.977 209.636 123.977 210.455C123.977 211.263 123.694 211.955 123.13 212.53C122.565 213.095 121.89 213.377 121.104 213.377C120.297 213.377 119.605 213.089 119.029 212.514C118.465 211.927 118.183 211.219 118.183 210.389C118.183 209.592 118.465 208.911 119.029 208.347C119.594 207.782 120.274 207.5 121.071 207.5ZM118.797 214.938H123.346V233H118.797V214.938ZM142.311 214.938H146.826V233H142.311V231.091C141.425 231.932 140.534 232.541 139.638 232.917C138.752 233.282 137.789 233.465 136.749 233.465C134.414 233.465 132.394 232.563 130.689 230.759C128.985 228.944 128.133 226.691 128.133 224.002C128.133 221.213 128.957 218.927 130.606 217.146C132.256 215.364 134.259 214.473 136.616 214.473C137.701 214.473 138.719 214.677 139.671 215.087C140.623 215.496 141.503 216.111 142.311 216.93V214.938ZM137.546 218.656C136.14 218.656 134.973 219.154 134.043 220.15C133.113 221.135 132.648 222.403 132.648 223.952C132.648 225.513 133.119 226.797 134.06 227.804C135.011 228.811 136.179 229.314 137.562 229.314C138.99 229.314 140.174 228.822 141.115 227.837C142.056 226.841 142.526 225.54 142.526 223.936C142.526 222.364 142.056 221.091 141.115 220.117C140.174 219.143 138.985 218.656 137.546 218.656ZM151.846 214.938H155.73V217.212C156.151 216.315 156.71 215.635 157.407 215.17C158.104 214.705 158.868 214.473 159.698 214.473C160.285 214.473 160.899 214.628 161.541 214.938L160.13 218.839C159.599 218.573 159.161 218.44 158.818 218.44C158.121 218.44 157.529 218.872 157.042 219.735C156.566 220.599 156.328 222.292 156.328 224.815L156.345 225.695V233H151.846V214.938Z" fill="white"/>
</g>
<defs>
<clipPath id="clip0_227_4771">
<rect width="170" height="237" fill="white"/>
</clipPath>
</defs>
</svg>
