<svg width="125" height="193" viewBox="0 0 125 193" fill="none" xmlns="http://www.w3.org/2000/svg">
<g clip-path="url(#clip0_227_4777)">
<rect width="125" height="193" fill="white"/>
<path d="M-0.328125 192V10.998H28.0957C44.584 10.998 56.6426 12.0645 64.2715 14.1973C75.0996 17.0684 83.7129 22.4004 90.1113 30.1934C96.5098 37.9863 99.709 47.1738 99.709 57.7559C99.709 64.6465 98.2324 70.9219 95.2793 76.582C92.4082 82.1602 87.6914 87.4102 81.1289 92.332C92.1211 97.5 100.16 103.98 105.246 111.773C110.332 119.484 112.875 128.631 112.875 139.213C112.875 149.385 110.25 158.654 105 167.021C99.75 175.389 92.9824 181.664 84.6973 185.848C76.4121 189.949 64.9688 192 50.3672 192H-0.328125ZM34.125 43.8516V81.9961H41.6309C49.998 81.9961 56.1914 80.2324 60.2109 76.7051C64.3125 73.1777 66.3633 68.3789 66.3633 62.3086C66.3633 56.6484 64.4355 52.1777 60.5801 48.8965C56.7246 45.5332 50.8594 43.8516 42.9844 43.8516H34.125ZM34.125 112.758V159.146H42.7383C57.0117 159.146 66.6094 157.342 71.5312 153.732C76.5352 150.123 79.0371 144.873 79.0371 137.982C79.0371 130.189 76.125 124.037 70.3008 119.525C64.4766 115.014 54.7969 112.758 41.2617 112.758H34.125Z" fill="#FFD700"/>
<path d="M11.6719 181V-0.00195312H40.0957C56.584 -0.00195312 68.6426 1.06445 76.2715 3.19727C87.0996 6.06836 95.7129 11.4004 102.111 19.1934C108.51 26.9863 111.709 36.1738 111.709 46.7559C111.709 53.6465 110.232 59.9219 107.279 65.582C104.408 71.1602 99.6914 76.4102 93.1289 81.332C104.121 86.5 112.16 92.9805 117.246 100.773C122.332 108.484 124.875 117.631 124.875 128.213C124.875 138.385 122.25 147.654 117 156.021C111.75 164.389 104.982 170.664 96.6973 174.848C88.4121 178.949 76.9688 181 62.3672 181H11.6719ZM46.125 32.8516V70.9961H53.6309C61.998 70.9961 68.1914 69.2324 72.2109 65.7051C76.3125 62.1777 78.3633 57.3789 78.3633 51.3086C78.3633 45.6484 76.4355 41.1777 72.5801 37.8965C68.7246 34.5332 62.8594 32.8516 54.9844 32.8516H46.125ZM46.125 101.758V148.146H54.7383C69.0117 148.146 78.6094 146.342 83.5312 142.732C88.5352 139.123 91.0371 133.873 91.0371 126.982C91.0371 119.189 88.125 113.037 82.3008 108.525C76.4766 104.014 66.7969 101.758 53.2617 101.758H46.125Z" fill="#115173"/>
</g>
<defs>
<clipPath id="clip0_227_4777">
<rect width="125" height="193" fill="white"/>
</clipPath>
</defs>
</svg>
